<svg id="color-logo" xmlns="http://www.w3.org/2000/svg" width="214.987" height="105.584" viewBox="0 0 214.987 105.584">
  <path id="Path_1" data-name="Path 1" d="M-241.432,320.842h-.008c64.936-6.636,183.456,11.373,201.96-4.116-27.373,8.749-174.587-5.556-201.952,4.116Z" transform="translate(241.44 -270.871)" fill="#06355f" fill-rule="evenodd"/>
  <path id="Path_2" data-name="Path 2" d="M-188.93,260.4l4.221-7.977h-.225a29.511,29.511,0,0,1-14.924,3.454l-15.83-.753,27.136-36.056H-221.87l-3.844,7.224h.225a18.511,18.511,0,0,1,11.307-2.7l12.814.628L-228.653,260.4Z" transform="translate(234.657 -219.064)" fill="#06355f" fill-rule="evenodd"/>
  <path id="Path_3" data-name="Path 3" d="M-103.138,260.4h11.081v-.189c-3.845-1.194-3.392-5.779-3.392-8.6V227.921c0-2.889-.453-7.475,3.392-8.668l-.076-.189h-14.322v.189c3.769,1.194,3.317,5.779,3.317,8.606v18.907c0,2.261.075,3.831-1.583,5.716-2.488,2.953-6.785,4.4-11.006,4.4-7.764,0-11.985-3.894-11.985-12.249V227.858c0-2.827-.452-7.412,3.317-8.606v-.189h-14.322v.189c3.844,1.194,3.316,5.779,3.316,8.606v16.771c0,4.523-.151,8.732,3.845,12.375,3.392,3.078,8.668,4.4,13.644,4.4,5.276,0,11.456-1.508,14.774-5.151V260.4Z" transform="translate(186.948 -219.064)" fill="#06355f"/>
  <path id="Path_4" data-name="Path 4" d="M-27.153,219.064v.189c3.844,1.194,3.316,5.779,3.316,8.668V251.6c0,2.826.528,7.475-3.316,8.6v.189h14.4v-.189c-3.844-1.13-3.392-5.716-3.392-8.6V223.462a47.1,47.1,0,0,1,5.126-.5c5.05-.189,9.723,2.449,9.723,6.972,0,5.9-7.011,8.228-13.041,8.983l6.934,8.856,9.2,9.485c2.261,2.324,4.748,3.141,8.743,3.141H17.47A51.4,51.4,0,0,1,5.259,251.6L-5.6,240.233c6.181-1.193,11.985-5.527,11.985-11.055,0-5.716-5.5-10.114-15.6-10.114Z" transform="translate(127.767 -219.064)" fill="#06355f"/>
  <path id="Path_5" data-name="Path 5" d="M69.959,227.921l25.854,27.324c3.316,3.581,5.653,5.653,11,7.161V227.167c0-3.518,0-6.03,3.92-7.914v-.189H97.471v.189c4,1.885,3.92,4.4,3.92,7.914v23.807L73.8,221.954,72.748,220.7a3.845,3.845,0,0,1-1.132-1.57v-.063h-11v.189c3.92,1.885,3.92,4.4,3.92,7.914V252.23c0,3.518,0,6.031-3.994,7.977v.189H73.879v-.189c-4-1.947-3.92-4.46-3.92-7.977V227.921Z" transform="translate(81.25 -219.064)" fill="#06355f"/>
  <path id="Path_6" data-name="Path 6" d="M-232.447,331.183h-.008c65.194-3.228,182.608,20.961,201.9,6.461-27.794,7.3-174.056-14.687-201.891-6.461Z" transform="translate(236.674 -277.547)" fill="#06355f" fill-rule="evenodd"/>
  <path id="Path_7" data-name="Path 7" d="M-113.56,327.142c47.657,3.991,142.736,13.851,154.944,1.643-21.2,7.177-118.791,0-154.944-1.643Z" transform="translate(173.603 -276.396)" fill="#06355f" fill-rule="evenodd"/>
  <path id="Path_8" data-name="Path 8" d="M-229.8,368.378v.068c1.352.451,1.19,2.1,1.19,3.11v8.5c0,1.014.162,2.682-1.217,3.088v.068h5.381v-.068c-1.433-.676-1.406-1.578-1.406-2.839V370.136a13.106,13.106,0,0,1,1.893-.135c2.164,0,3.841.789,3.841,2.772,0,2.164-2.515,3.359-4.841,3.471a5.309,5.309,0,0,0,1.974.315c3.056,0,5.95-1.645,5.95-4.237,0-2.524-2.677-3.944-6.194-3.944Z" transform="translate(235.28 -298.271)" fill="#06355f"/>
  <path id="Path_9" data-name="Path 9" d="M-179.288,381.383v-9.826c0-1.014-.189-2.682,1.19-3.11v-.068h-5.165v.068c1.379.428,1.217,2.073,1.217,3.11v8.5c0,1.014.162,2.682-1.217,3.088v.068h11.115l1.406-3h-.081a7.519,7.519,0,0,1-4.787,1.374l-3.678-.2Z" transform="translate(210.579 -298.271)" fill="#06355f" fill-rule="evenodd"/>
  <path id="Path_10" data-name="Path 10" d="M-124.97,383.208h3.976v-.068c-1.38-.428-1.217-2.074-1.217-3.088v-8.5c0-1.037-.163-2.682,1.217-3.11l-.028-.068h-5.139v.068c1.353.428,1.19,2.073,1.19,3.087v6.784a2.592,2.592,0,0,1-.568,2.05,5.185,5.185,0,0,1-3.949,1.578c-2.786,0-4.3-1.4-4.3-4.395v-6.017c0-1.014-.162-2.659,1.19-3.087v-.068h-5.139v.068c1.379.428,1.19,2.073,1.19,3.087v6.017c0,1.623-.054,3.133,1.379,4.44a7.419,7.419,0,0,0,4.9,1.578c1.893,0,4.11-.541,5.3-1.848v1.487Z" transform="translate(186.427 -298.271)" fill="#06355f"/>
  <path id="Path_11" data-name="Path 11" d="M-70.74,379.354l-5.085-9.939A2.363,2.363,0,0,1-76.2,368.4v-.023h-4.733v.068c1.244.563.947,1.465.839,2.1l-1.542,9.443c-.216,1.217-.378,2.322-1.514,3.155v.068h4.408v-.068c-1.271-.473-1.082-1.465-.865-2.839l1.542-9.692,5.139,10.164a5.621,5.621,0,0,0,2.38,2.727l6.058-12.914,1.541,10.863c0,.766-.162,1.442-1.109,1.69v.068h5.22v-.068a2.561,2.561,0,0,1-1.379-2.3L-62,369.776a1.249,1.249,0,0,1,.839-1.33v-.068h-4.679v.023a3.434,3.434,0,0,1-.405,1.4l-4.49,9.556Z" transform="translate(157.473 -298.271)" fill="#06355f"/>
  <path id="Path_12" data-name="Path 12" d="M-11.307,380.03c0,1.037.163,2.682-1.19,3.11v.068h4.462a16.09,16.09,0,0,0,6.058-.7c1.812-.721,3.246-2.208,3.246-3.943,0-2.209-1.974-3.561-4.408-3.989,1.541-.564,2.7-1.42,2.7-2.93,0-2.006-2.082-3.268-5.652-3.268H-12.5v.068c1.379.428,1.19,2.073,1.19,3.087v8.5Zm2.759,1.375v-5.566l1.893-.09c2.38-.113,4.922.833,4.922,3.02,0,2.141-2.244,3-4.462,2.817l-2.353-.18Zm0-7.054v-4.417l1.812-.157c1.623-.136,3.354.676,3.354,2.231,0,1.848-2.515,2.343-4.273,2.343Z" transform="translate(119.992 -298.271)" fill="#06355f" fill-rule="evenodd"/>
  <path id="Path_13" data-name="Path 13" d="M38.661,380.052c0,1.014.162,2.682-1.19,3.088v.068H42.61v-.068c-1.352-.428-1.19-2.074-1.19-3.088v-8.5c0-1.014-.162-2.682,1.19-3.11v-.068H37.471v.068c1.379.428,1.19,2.073,1.19,3.11v8.5Z" transform="translate(93.485 -298.271)" fill="#06355f"/>
  <path id="Path_14" data-name="Path 14" d="M72.271,371.556l9.276,9.8a7.419,7.419,0,0,0,3.948,2.569V371.285c0-1.262,0-2.164,1.406-2.839v-.068h-4.76v.068c1.433.676,1.407,1.577,1.407,2.839v8.542l-9.9-10.413-.378-.451a1.385,1.385,0,0,1-.406-.563v-.023H68.917v.068c1.406.676,1.406,1.577,1.406,2.839v8.992c0,1.262,0,2.164-1.433,2.862v.068h4.787v-.068c-1.433-.7-1.406-1.6-1.406-2.862v-8.721Z" transform="translate(76.819 -298.271)" fill="#06355f"/>
  <path id="Path_15" data-name="Path 15" d="M141.77,367.994a24.351,24.351,0,0,0-4.246-.383c-6.545,0-11.17,3.02-11.17,7.865,0,4.53,4.083,7.685,11.007,7.685a41.538,41.538,0,0,0,6.464-.677,2.158,2.158,0,0,1-.135-1.014v-5.184a2.252,2.252,0,0,1,.135-.969v-.068h-4.138v.068c1.217.406,1.244,1.51,1.244,2.547v3.245a16.276,16.276,0,0,1-3.759.428c-4.273,0-7.735-2.749-7.735-6.378s3.218-5.927,7.438-5.927c1.649,0,3.7.316,4.814,1.352h.081v-2.592Z" transform="translate(46.336 -297.864)" fill="#06355f"/>
  <path id="Path_16" data-name="Path 16" d="M-166.994,410.64a16.106,16.106,0,0,0-4.03-.5c-3.3,0-6.788,1.082-6.788,3.921,0,4.778,9.3,4.147,9.3,7.663,0,1.578-2.326,2.344-3.867,2.344A10.514,10.514,0,0,1-178.3,422.2l.785,2.817a16.554,16.554,0,0,0,4.841.676c4.219,0,7.248-2.254,7.248-4.665,0-4.169-9.3-4.124-9.3-7.212,0-1.555,1.948-2.051,3.489-2.051a6.86,6.86,0,0,1,4.246,1.42V410.64Z" transform="translate(207.945 -320.427)" fill="#06355f"/>
  <path id="Path_17" data-name="Path 17" d="M-128.645,418.38h2c.839,0,1.974-.023,2.407.631h.081v-2.389h-.081a3.276,3.276,0,0,1-1.19.135h-3.219v-4.192a18.175,18.175,0,0,1,2.758-.158,4.275,4.275,0,0,1,3.191.9h.081v-2.637h-.081a3.278,3.278,0,0,1-1.271.113h-8.654v.068c1.379.428,1.217,2.073,1.217,3.11v8.5c0,1.014.162,2.682-1.217,3.088v.068h11.278l1.217-2.952h-.081a7.666,7.666,0,0,1-5,1.33l-3.435-.27V418.38Z" transform="translate(183.715 -320.707)" fill="#06355f" fill-rule="evenodd"/>
  <path id="Path_18" data-name="Path 18" d="M-88.959,410.912v.068c1.379.428,1.19,2.073,1.19,3.11v8.5c0,1.014.189,2.682-1.19,3.088v.068h5.165v-.068c-1.379-.406-1.217-2.051-1.217-3.088v-10.1a16.923,16.923,0,0,1,1.84-.18c1.812-.068,3.489.878,3.489,2.5,0,2.119-2.515,2.952-4.679,3.223l2.488,3.178,3.3,3.4a3.893,3.893,0,0,0,3.137,1.127h2.488a18.45,18.45,0,0,1-4.382-3.155l-3.894-4.079c2.218-.428,4.3-1.983,4.3-3.967,0-2.051-1.974-3.628-5.6-3.628Z" transform="translate(160.553 -320.834)" fill="#06355f"/>
  <path id="Path_19" data-name="Path 19" d="M-36.864,423.082l-4.3-9.8a8.065,8.065,0,0,1-.73-2.1l.027-.27h-3.949v.068c1.19.766,1.6,2.073,2.11,3.223l4.084,9.218c.785,1.78,1.406,1.961,3.3,3l7.14-15.506h-4.03v.068c1.677.563.757,2.411.027,4.012l-3.678,8.091Z" transform="translate(137.667 -320.834)" fill="#06355f"/>
  <path id="Path_20" data-name="Path 20" d="M6.876,422.586c0,1.014.162,2.682-1.19,3.088v.068h5.139v-.068c-1.352-.428-1.19-2.073-1.19-3.088v-8.5c0-1.014-.162-2.682,1.19-3.11v-.068H5.686v.068c1.379.428,1.19,2.073,1.19,3.11v8.5Z" transform="translate(110.347 -320.834)" fill="#06355f"/>
  <path id="Path_21" data-name="Path 21" d="M47.983,410.708a25.65,25.65,0,0,0-4.922-.563c-5.545,0-9.493,3.088-9.493,7.753,0,4.823,3.948,7.8,10.331,7.8a11.266,11.266,0,0,0,4.084-.676l1.379-2.614h-.081a13.716,13.716,0,0,1-5.76,1.42c-4.165,0-6.87-2.952-6.87-6.265,0-3.268,2.6-5.544,6.328-5.544a10.768,10.768,0,0,1,5,1.285v-2.592Z" transform="translate(95.556 -320.427)" fill="#06355f" fill-rule="evenodd"/>
  <path id="Path_22" data-name="Path 22" d="M87.259,418.38h2c.839,0,1.974-.023,2.407.631h.081v-2.389h-.081a3.28,3.28,0,0,1-1.19.135H87.259v-4.192a18.171,18.171,0,0,1,2.758-.158,4.275,4.275,0,0,1,3.191.9h.081v-2.637h-.081a3.278,3.278,0,0,1-1.271.113H83.283v.068c1.379.428,1.217,2.073,1.217,3.11v8.5c0,1.014.162,2.682-1.217,3.088v.068H94.561l1.217-2.952H95.7a7.665,7.665,0,0,1-5,1.33l-3.435-.27V418.38Z" transform="translate(69.184 -320.707)" fill="#06355f" fill-rule="evenodd"/>
</svg>
