<svg xmlns="http://www.w3.org/2000/svg" xmlns:xlink="http://www.w3.org/1999/xlink" width="73" height="73" viewBox="0 0 73 73">
  <defs>
    <clipPath id="clip-path">
      <rect id="Rectangle_178" data-name="Rectangle 178" width="73" height="73" fill="#4ca1bf"/>
    </clipPath>
  </defs>
  <g id="gaurantee2" clip-path="url(#clip-path)">
    <path id="Path_545" data-name="Path 545" d="M56.558,73a17.382,17.382,0,0,1-12.267-4.9A17.6,17.6,0,0,1,39.07,55.933a16.971,16.971,0,0,1,.491-4.33.761.761,0,0,0-.2-.72L32.385,43.91a.757.757,0,0,0-.539-.224h0a.77.77,0,0,0-.541.224L25.29,49.937a.765.765,0,0,0,0,1.08l5.331,5.331a1.563,1.563,0,0,1-2.212,2.21l-1.483-1.483a.765.765,0,0,0-1.082,0l-14.56,14.56a4.635,4.635,0,0,1-3.3,1.349A5.014,5.014,0,0,1,4.418,71.5L1.506,68.585a4.871,4.871,0,0,1-.141-6.869l14.562-14.56a.768.768,0,0,0,0-1.082L14.442,44.59a1.564,1.564,0,0,1,2.212-2.212L22,47.725a.769.769,0,0,0,.541.222.758.758,0,0,0,.541-.224L29.1,41.7a.767.767,0,0,0,0-1.082l-6.975-6.973a.758.758,0,0,0-.539-.224.739.739,0,0,0-.181.022,16.961,16.961,0,0,1-4,.494h-.012c-.108,0-.214,0-.317,0A17.62,17.62,0,0,1,4.906,28.712,17.916,17.916,0,0,1,1.374,9.43,1.558,1.558,0,0,1,2.51,8.488a1.748,1.748,0,0,1,.3-.027,1.557,1.557,0,0,1,1.113.453l8.742,8.74a.765.765,0,0,0,1.082,0l3.906-3.906a.763.763,0,0,0,0-1.08L8.916,3.927a1.563,1.563,0,0,1,.513-2.553A18.493,18.493,0,0,1,16.442,0,17.4,17.4,0,0,1,28.709,4.9a17.589,17.589,0,0,1,4.672,16.707.761.761,0,0,0,.2.73l6.894,6.894a.763.763,0,0,0,1.08,0L57.025,13.764a.765.765,0,0,0,0-1.082l-.667-.667a1.565,1.565,0,0,1,0-2.21L65.67.493a1.562,1.562,0,0,1,2.21,0L72.519,5.13a1.567,1.567,0,0,1,0,2.212l-9.312,9.312a1.564,1.564,0,0,1-2.212,0l-.679-.68a.765.765,0,0,0-1.08,0L43.765,31.446a.763.763,0,0,0,0,1.08l6.894,6.894a.759.759,0,0,0,.541.224.74.74,0,0,0,.189-.025,17.112,17.112,0,0,1,4.237-.531,17.537,17.537,0,0,1,12.468,5.2,17.914,17.914,0,0,1,3.532,19.282,1.56,1.56,0,0,1-1.138.942,1.677,1.677,0,0,1-.307.028,1.561,1.561,0,0,1-1.108-.456l-8.742-8.742a.763.763,0,0,0-1.08,0l-3.907,3.909a.765.765,0,0,0,0,1.08l8.738,8.74a1.562,1.562,0,0,1-.514,2.552A18.435,18.435,0,0,1,56.558,73M18.678,49.142a.763.763,0,0,0-.541.224L3.577,63.928A1.555,1.555,0,0,0,3.151,65.2a1.954,1.954,0,0,0,.569,1.173l2.907,2.908a1.942,1.942,0,0,0,1.354.577,1.537,1.537,0,0,0,1.095-.438l14.56-14.56a.763.763,0,0,0,0-1.08l-4.417-4.417a.763.763,0,0,0-.541-.224M55.608,42.2A13.3,13.3,0,0,0,42.2,55.873a14.49,14.49,0,0,0,4.3,10.011,14.29,14.29,0,0,0,10.094,3.97,15.773,15.773,0,0,0,1.979-.126.765.765,0,0,0,.443-1.3L52.889,62.3a3.575,3.575,0,0,1-1.052-2.465,3.417,3.417,0,0,1,1-2.5l4.5-4.5a3.254,3.254,0,0,1,2.371-1l.118,0A3.578,3.578,0,0,1,62.3,52.889l6.132,6.132a.763.763,0,0,0,.788.182.767.767,0,0,0,.511-.627A14.194,14.194,0,0,0,55.608,42.2M32.171,25.671a.841.841,0,0,0-.091,0,.764.764,0,0,0-.562.363,16.385,16.385,0,0,1-2.4,3.083,16.537,16.537,0,0,1-3.25,2.5.765.765,0,0,0-.151,1.2L40.18,47.282a.763.763,0,0,0,.541.224.906.906,0,0,0,.095-.007.766.766,0,0,0,.562-.368,15.785,15.785,0,0,1,5.583-5.649.764.764,0,0,0,.144-1.195L32.712,25.9a.766.766,0,0,0-.541-.224M4.03,13.757a.8.8,0,0,0-.247.041.766.766,0,0,0-.511.627A14.509,14.509,0,0,0,7.116,26.5a14.511,14.511,0,0,0,10.011,4.305c.118,0,.241,0,.365,0A13.3,13.3,0,0,0,30.8,17.082a14.5,14.5,0,0,0-4.3-9.966A14.312,14.312,0,0,0,16.394,3.147a15.568,15.568,0,0,0-1.968.124.764.764,0,0,0-.443,1.3L20.112,10.7a3.516,3.516,0,0,1,.053,4.961l-4.5,4.5a3.422,3.422,0,0,1-2.434,1A3.551,3.551,0,0,1,10.7,20.111l-6.132-6.13a.765.765,0,0,0-.541-.224M61.561,12.8a.765.765,0,0,0,1.082,0l6.019-6.021a.763.763,0,0,0,0-1.08L67.316,4.35a.765.765,0,0,0-1.082,0l-6.019,6.019a.765.765,0,0,0,0,1.082l.664.664Z" transform="translate(0)" fill="#4ca1bf"/>
  </g>
</svg>
