<svg id="gaurantee1" xmlns="http://www.w3.org/2000/svg" xmlns:xlink="http://www.w3.org/1999/xlink" width="73" height="73" viewBox="0 0 73 73">
  <defs>
    <clipPath id="clip-path">
      <rect id="Rectangle_177" data-name="Rectangle 177" width="73" height="73" transform="translate(0 0)" fill="#4ca1bf"/>
    </clipPath>
  </defs>
  <g id="Group_500" data-name="Group 500" transform="translate(0 0)" clip-path="url(#clip-path)">
    <path id="Path_543" data-name="Path 543" d="M73.52,50.158a1.218,1.218,0,0,1,0-.206c-1.322-7.668-4.852-12.244-9.446-12.244l-1.011,0c-4.148,0-7.426-.007-10.742-4.75a1.581,1.581,0,0,0-1.3-.672,1.573,1.573,0,0,0-1.289,2.475c3.933,5.632,8.353,6.1,12.544,6.1.319,0,.633,0,.948-.005l.846,0c2.342,0,4.414,2.5,5.688,6.864a.77.77,0,0,1-.739.986H4.518a.772.772,0,0,1-.74-.986c1.279-4.362,3.351-6.864,5.691-6.864l.851,0c.3,0,.617.005.931.005,4.372,0,8.972-.471,12.906-6.1a1.577,1.577,0,0,0-2.587-1.8c-3.075,4.4-6.413,4.75-10.454,4.75l-1.648,0c-4.595,0-8.123,4.575-9.446,12.243a1.166,1.166,0,0,1,0,.2A1,1,0,0,1,0,50.292a1.227,1.227,0,0,1,.033.174,1.6,1.6,0,0,0,.058.3,1.639,1.639,0,0,0,.124.274,1.674,1.674,0,0,0,.162.242,1.488,1.488,0,0,0,.219.206,1.463,1.463,0,0,0,.239.164,1.593,1.593,0,0,0,.3.112,1.537,1.537,0,0,1,.212.084,1.487,1.487,0,0,0,.211.015H71.979a1.546,1.546,0,0,0,.217-.015,1.606,1.606,0,0,1,.216-.085,1.475,1.475,0,0,0,.289-.107,1.544,1.544,0,0,0,.244-.169,1.443,1.443,0,0,0,.216-.2,1.538,1.538,0,0,0,.165-.247,1.455,1.455,0,0,0,.122-.267,1.511,1.511,0,0,0,.06-.306,1.085,1.085,0,0,1,.032-.17.969.969,0,0,1-.02-.135" transform="translate(0 21.677)" fill="#4ca1bf"/>
    <path id="Path_544" data-name="Path 544" d="M56.145,23.827a.773.773,0,0,1-.438-.388v-.747c0-7.428-1.935-13.127-5.753-16.943S40.436,0,33,0,19.871,1.934,16.056,5.749,10.3,15.264,10.3,22.67v.772a.759.759,0,0,1-.436.384,6.263,6.263,0,0,0-4.257,5.9v4.693a6.279,6.279,0,0,0,6.273,6.269H18.2a.761.761,0,0,1,.137.222C21.447,49.073,27.479,54.769,33,54.769a9.351,9.351,0,0,0,2.86-.465,1.576,1.576,0,0,0-.969-3,6.231,6.231,0,0,1-1.89.313c-5.445,0-13.68-9-13.68-22.555,0-13.658,7.439-16.525,13.68-16.525,4.653,0,8.181,1.528,10.488,4.541a1.576,1.576,0,1,0,2.5-1.917C43.1,11.382,38.614,9.385,33,9.385c-8.714,0-14.484,4.78-16.244,13.461a.768.768,0,0,1-.755.617H14.227a.77.77,0,0,1-.77-.77c0-6.677,1.573-11.5,4.81-14.731S26.324,3.152,33,3.152s11.5,1.573,14.738,4.808,4.81,8.054,4.81,14.731a.77.77,0,0,1-.77.77h-.976l-2.773-.017H48a1.251,1.251,0,0,0-.159.015,1.578,1.578,0,0,0-1.372,1.757,31.836,31.836,0,0,1,.221,3.844,30.429,30.429,0,0,1-1.526,9.562,1.58,1.58,0,0,0,1.4,2.066v0H46.6l.02,0,.008,0h5.153a.769.769,0,0,1,.77.769,3.12,3.12,0,0,1-3.117,3.117h-9.39a.771.771,0,0,1-.77-.77V41.461a1.577,1.577,0,0,0-3.154,0v4.693A1.579,1.579,0,0,0,37.7,47.731H49.436a6.277,6.277,0,0,0,6.271-6.269V41.03a.77.77,0,0,1,.511-.725A6.276,6.276,0,0,0,60.4,34.423V29.73a6.263,6.263,0,0,0-4.257-5.9M15.454,26.615a.768.768,0,0,1,.769.8l-.008.194c-.022.493-.043.959-.043,1.449a33.882,33.882,0,0,0,.854,7.536.771.771,0,0,1-.75.943H11.881a3.122,3.122,0,0,1-3.119-3.117V29.73a3.12,3.12,0,0,1,3.119-3.115Zm41.794,7.809a3.121,3.121,0,0,1-3.117,3.117h-4.4a.771.771,0,0,1-.752-.943,33.734,33.734,0,0,0,.862-7.536c0-.555-.023-1.108-.047-1.643a.768.768,0,0,1,.769-.8h3.57a3.12,3.12,0,0,1,3.117,3.115Z" transform="translate(3.765 0)" fill="#4ca1bf"/>
  </g>
</svg>
