<svg id="Group_300" data-name="Group 300" xmlns="http://www.w3.org/2000/svg" width="21.121" height="20.394" viewBox="0 0 21.121 20.394">
  <rect id="Rectangle_145" data-name="Rectangle 145" width="4.86" height="14.082" transform="translate(0 6.312)" fill="#fff"/>
  <path id="Path_330" data-name="Path 330" d="M18.649,9.435a7.564,7.564,0,0,0-4.588,1.534V9.615H9.246V23.6h4.815V14.43a1.909,1.909,0,0,1,2.089-1.545c2.272,0,2.226,1.681,2.226,1.681V23.6h4.815V13.976a4.38,4.38,0,0,0-4.541-4.541" transform="translate(-2.069 -3.257)" fill="#fff"/>
  <path id="Path_331" data-name="Path 331" d="M2.408,6.29A2.407,2.407,0,1,0,0,3.883,2.407,2.407,0,0,0,2.408,6.29" transform="translate(0 -1.476)" fill="#fff"/>
</svg>
