<svg id="Group_315" data-name="Group 315" xmlns="http://www.w3.org/2000/svg" xmlns:xlink="http://www.w3.org/1999/xlink" width="214.987" height="105.584" viewBox="0 0 214.987 105.584">
  <defs>
    <clipPath id="clip-path">
      <rect id="Rectangle_144" data-name="Rectangle 144" width="214.987" height="105.584" fill="none"/>
    </clipPath>
  </defs>
  <g id="Group_298" data-name="Group 298" clip-path="url(#clip-path)">
    <path id="Path_308" data-name="Path 308" d="M.008,101.778H0c64.936-6.636,183.456,11.373,201.96-4.116C174.586,106.411,27.374,92.106.008,101.778" transform="translate(0 -51.807)" fill="#fff" fill-rule="evenodd"/>
    <path id="Path_309" data-name="Path 309" d="M52.51,41.332l4.221-7.977h-.225a29.509,29.509,0,0,1-14.924,3.454l-15.83-.754L52.887,0H19.571L15.727,7.224h.225a18.513,18.513,0,0,1,11.307-2.7l12.814.628L12.787,41.332Z" transform="translate(-6.783)" fill="#fff" fill-rule="evenodd"/>
    <path id="Path_310" data-name="Path 310" d="M138.3,41.332h11.08v-.189c-3.845-1.194-3.391-5.778-3.391-8.605V8.857c0-2.889-.454-7.475,3.391-8.668L149.307,0H134.985V.189c3.769,1.194,3.317,5.779,3.317,8.605V27.7c0,2.261.075,3.831-1.583,5.716-2.488,2.953-6.785,4.4-11.006,4.4-7.764,0-11.985-3.894-11.985-12.249V8.794c0-2.826-.452-7.411,3.317-8.605V0H102.724V.189c3.844,1.194,3.316,5.779,3.316,8.605V25.565c0,4.523-.151,8.731,3.845,12.375,3.392,3.077,8.668,4.4,13.644,4.4,5.276,0,11.456-1.508,14.774-5.151Z" transform="translate(-54.492)" fill="#fff"/>
    <path id="Path_311" data-name="Path 311" d="M214.287,0V.189c3.844,1.194,3.316,5.778,3.316,8.668V32.538c0,2.827.528,7.475-3.316,8.605v.189h14.4v-.189c-3.844-1.13-3.392-5.716-3.392-8.605V4.4a47.09,47.09,0,0,1,5.126-.5c5.05-.189,9.723,2.449,9.723,6.972,0,5.9-7.01,8.228-13.041,8.983l6.934,8.856,9.2,9.485c2.261,2.325,4.748,3.141,8.744,3.141h6.934A51.42,51.42,0,0,1,246.7,32.538l-10.854-11.37c6.181-1.193,11.985-5.527,11.985-11.055,0-5.716-5.5-10.114-15.6-10.114Z" transform="translate(-113.673)" fill="#fff"/>
    <path id="Path_312" data-name="Path 312" d="M311.4,8.857l25.855,27.324c3.316,3.581,5.653,5.653,11,7.161V8.1c0-3.518,0-6.03,3.92-7.914V0H338.911V.189c4,1.884,3.92,4.4,3.92,7.914V31.911L315.243,2.89l-1.055-1.257a3.844,3.844,0,0,1-1.132-1.57V0h-11V.189c3.92,1.884,3.92,4.4,3.92,7.914V33.166c0,3.517,0,6.031-3.994,7.977v.189h13.342v-.189c-4-1.947-3.92-4.46-3.92-7.977Z" transform="translate(-160.19)" fill="#fff"/>
    <path id="Path_313" data-name="Path 313" d="M8.993,112.119H8.985c65.194-3.228,182.609,20.962,201.9,6.462-27.794,7.3-174.056-14.688-201.891-6.461" transform="translate(-4.766 -58.483)" fill="#fff" fill-rule="evenodd"/>
    <path id="Path_314" data-name="Path 314" d="M127.88,108.078c47.657,3.991,142.736,13.851,154.944,1.643-21.2,7.177-118.791,0-154.944-1.643" transform="translate(-67.837 -57.332)" fill="#fff" fill-rule="evenodd"/>
    <path id="Path_315" data-name="Path 315" d="M11.64,149.314v.068c1.352.451,1.19,2.1,1.19,3.11v8.5c0,1.014.162,2.682-1.217,3.088v.068h5.382v-.068c-1.434-.676-1.406-1.578-1.406-2.84V151.072a13.079,13.079,0,0,1,1.893-.135c2.164,0,3.841.789,3.841,2.772,0,2.164-2.515,3.358-4.841,3.471a5.309,5.309,0,0,0,1.974.316c3.056,0,5.949-1.645,5.949-4.237,0-2.524-2.677-3.944-6.193-3.944Z" transform="translate(-6.16 -79.207)" fill="#fff"/>
    <path id="Path_316" data-name="Path 316" d="M62.152,162.319v-9.826c0-1.014-.189-2.682,1.19-3.11v-.068H58.177v.068c1.379.428,1.217,2.073,1.217,3.11v8.5c0,1.014.162,2.682-1.217,3.087v.068H69.292l1.406-3h-.081a7.516,7.516,0,0,1-4.787,1.374Z" transform="translate(-30.861 -79.207)" fill="#fff" fill-rule="evenodd"/>
    <path id="Path_317" data-name="Path 317" d="M116.47,164.145h3.975v-.068c-1.379-.428-1.217-2.073-1.217-3.088v-8.5c0-1.037-.163-2.682,1.217-3.11l-.027-.068H115.28v.068c1.352.428,1.19,2.073,1.19,3.088v6.784a2.593,2.593,0,0,1-.568,2.051,5.186,5.186,0,0,1-3.949,1.578c-2.786,0-4.3-1.4-4.3-4.395V152.47c0-1.014-.162-2.659,1.19-3.088v-.068h-5.138v.068c1.379.428,1.19,2.073,1.19,3.088v6.017c0,1.623-.054,3.133,1.379,4.44a7.419,7.419,0,0,0,4.9,1.578c1.893,0,4.11-.541,5.3-1.848Z" transform="translate(-55.013 -79.207)" fill="#fff"/>
    <path id="Path_318" data-name="Path 318" d="M170.7,160.29l-5.085-9.939a2.363,2.363,0,0,1-.378-1.014v-.023H160.5v.068c1.244.563.947,1.465.839,2.1l-1.542,9.443c-.216,1.217-.378,2.322-1.514,3.155v.068h4.408v-.068c-1.271-.473-1.082-1.465-.865-2.84l1.542-9.691,5.139,10.164a5.621,5.621,0,0,0,2.38,2.727l6.058-12.914,1.541,10.863c0,.766-.162,1.442-1.109,1.69v.068h5.22v-.068a2.561,2.561,0,0,1-1.379-2.3l-1.785-11.066a1.25,1.25,0,0,1,.839-1.33v-.068H175.6v.023a3.438,3.438,0,0,1-.405,1.4Z" transform="translate(-83.967 -79.207)" fill="#fff"/>
    <path id="Path_319" data-name="Path 319" d="M230.133,160.966c0,1.037.163,2.682-1.19,3.11v.068h4.462a16.1,16.1,0,0,0,6.058-.7c1.812-.721,3.246-2.209,3.246-3.944,0-2.209-1.974-3.561-4.408-3.989,1.541-.563,2.7-1.42,2.7-2.93,0-2.006-2.082-3.268-5.652-3.268h-6.41v.068c1.379.428,1.19,2.073,1.19,3.088Zm2.759,1.375v-5.567l1.893-.09c2.38-.113,4.922.834,4.922,3.02,0,2.141-2.244,3-4.462,2.817Zm0-7.054v-4.417l1.812-.158c1.623-.135,3.354.677,3.354,2.231,0,1.848-2.515,2.344-4.273,2.344Z" transform="translate(-121.448 -79.207)" fill="#fff" fill-rule="evenodd"/>
    <path id="Path_320" data-name="Path 320" d="M280.1,160.988c0,1.014.162,2.682-1.19,3.088v.068h5.138v-.068c-1.352-.428-1.19-2.073-1.19-3.088v-8.5c0-1.014-.162-2.682,1.19-3.11v-.068h-5.138v.068c1.379.428,1.19,2.073,1.19,3.11Z" transform="translate(-147.955 -79.207)" fill="#fff"/>
    <path id="Path_321" data-name="Path 321" d="M313.711,152.493l9.276,9.8a7.422,7.422,0,0,0,3.948,2.569V152.222c0-1.262,0-2.164,1.406-2.84v-.068h-4.76v.068c1.433.676,1.407,1.578,1.407,2.84v8.542l-9.9-10.412-.378-.451a1.389,1.389,0,0,1-.406-.563v-.023h-3.948v.068c1.406.676,1.406,1.578,1.406,2.84v8.992c0,1.262,0,2.164-1.433,2.862v.068h4.787v-.068c-1.433-.7-1.406-1.6-1.406-2.862Z" transform="translate(-164.621 -79.207)" fill="#fff"/>
    <path id="Path_322" data-name="Path 322" d="M383.21,148.93a24.345,24.345,0,0,0-4.246-.383c-6.545,0-11.17,3.02-11.17,7.866,0,4.53,4.083,7.685,11.007,7.685a41.59,41.59,0,0,0,6.464-.676,2.152,2.152,0,0,1-.135-1.014v-5.184a2.251,2.251,0,0,1,.135-.969v-.068h-4.138v.068c1.217.406,1.244,1.51,1.244,2.547v3.245a16.275,16.275,0,0,1-3.759.428c-4.273,0-7.735-2.75-7.735-6.378s3.218-5.927,7.438-5.927c1.649,0,3.7.316,4.814,1.352h.081Z" transform="translate(-195.104 -78.8)" fill="#fff"/>
    <path id="Path_323" data-name="Path 323" d="M74.446,191.576a16.1,16.1,0,0,0-4.029-.5c-3.3,0-6.788,1.081-6.788,3.921,0,4.778,9.3,4.147,9.3,7.663,0,1.578-2.326,2.344-3.867,2.344a10.511,10.511,0,0,1-5.923-1.871l.785,2.817a16.541,16.541,0,0,0,4.841.677c4.219,0,7.248-2.254,7.248-4.665,0-4.17-9.3-4.124-9.3-7.212,0-1.555,1.947-2.051,3.489-2.051a6.859,6.859,0,0,1,4.246,1.42Z" transform="translate(-33.495 -101.363)" fill="#fff"/>
    <path id="Path_324" data-name="Path 324" d="M112.794,199.316h2c.839,0,1.974-.023,2.407.631h.081v-2.389H117.2a3.277,3.277,0,0,1-1.19.135h-3.219V193.5a18.249,18.249,0,0,1,2.759-.158,4.274,4.274,0,0,1,3.191.9h.081v-2.637h-.081a3.278,3.278,0,0,1-1.271.113h-8.654v.068c1.379.428,1.217,2.073,1.217,3.11v8.5c0,1.014.162,2.682-1.217,3.088v.068H120.1l1.217-2.952h-.081a7.667,7.667,0,0,1-5,1.33l-3.435-.27Z" transform="translate(-57.725 -101.643)" fill="#fff" fill-rule="evenodd"/>
    <path id="Path_325" data-name="Path 325" d="M152.481,191.848v.068c1.379.428,1.19,2.073,1.19,3.11v8.5c0,1.014.189,2.682-1.19,3.088v.068h5.165v-.068c-1.379-.406-1.217-2.05-1.217-3.088v-10.1a16.932,16.932,0,0,1,1.84-.18c1.812-.068,3.489.879,3.489,2.5,0,2.118-2.515,2.952-4.679,3.223l2.488,3.177,3.3,3.4A3.893,3.893,0,0,0,166,206.678h2.488a18.427,18.427,0,0,1-4.381-3.155l-3.895-4.079c2.218-.428,4.3-1.983,4.3-3.966,0-2.051-1.974-3.629-5.6-3.629Z" transform="translate(-80.887 -101.77)" fill="#fff"/>
    <path id="Path_326" data-name="Path 326" d="M204.576,204.018l-4.3-9.8a8.052,8.052,0,0,1-.731-2.1l.027-.27h-3.949v.068c1.19.766,1.6,2.073,2.11,3.223l4.083,9.218c.785,1.78,1.407,1.961,3.3,3l7.14-15.506h-4.03v.068c1.677.563.757,2.411.027,4.012Z" transform="translate(-103.773 -101.77)" fill="#fff"/>
    <path id="Path_327" data-name="Path 327" d="M248.315,203.522c0,1.014.162,2.682-1.19,3.088v.068h5.139v-.068c-1.352-.428-1.19-2.073-1.19-3.088v-8.5c0-1.014-.162-2.682,1.19-3.11v-.068h-5.139v.068c1.379.428,1.19,2.073,1.19,3.11Z" transform="translate(-131.093 -101.77)" fill="#fff"/>
    <path id="Path_328" data-name="Path 328" d="M289.422,191.643a25.651,25.651,0,0,0-4.922-.563c-5.544,0-9.492,3.088-9.492,7.753,0,4.823,3.948,7.8,10.331,7.8a11.267,11.267,0,0,0,4.084-.676l1.379-2.614h-.081a13.718,13.718,0,0,1-5.761,1.42c-4.165,0-6.869-2.952-6.869-6.265,0-3.268,2.6-5.544,6.328-5.544a10.769,10.769,0,0,1,5,1.285Z" transform="translate(-145.884 -101.363)" fill="#fff" fill-rule="evenodd"/>
    <path id="Path_329" data-name="Path 329" d="M328.7,199.316h2c.838,0,1.974-.023,2.407.631h.081v-2.389h-.081a3.279,3.279,0,0,1-1.19.135H328.7V193.5a18.249,18.249,0,0,1,2.759-.158,4.275,4.275,0,0,1,3.191.9h.081v-2.637h-.081a3.278,3.278,0,0,1-1.271.113h-8.654v.068c1.38.428,1.217,2.073,1.217,3.11v8.5c0,1.014.163,2.682-1.217,3.088v.068H336l1.217-2.952h-.081a7.665,7.665,0,0,1-5,1.33l-3.435-.27Z" transform="translate(-172.256 -101.643)" fill="#fff" fill-rule="evenodd"/>
  </g>
</svg>
