<svg xmlns="http://www.w3.org/2000/svg" xmlns:xlink="http://www.w3.org/1999/xlink" width="63.664" height="72.957" viewBox="0 0 63.664 72.957">
  <defs>
    <clipPath id="clip-path">
      <rect id="Rectangle_176" data-name="Rectangle 176" width="63.664" height="72.957" fill="#4ca1bf"/>
    </clipPath>
  </defs>
  <g id="guarantee3" clip-path="url(#clip-path)">
    <path id="Path_540" data-name="Path 540" d="M31.831,72.957a3.6,3.6,0,0,1-1.05-.156C-.358,63.385-.529,24.237.159,12.464A3.827,3.827,0,0,1,3.94,8.922c.045,0,.088,0,.133,0,.64.033,1.3.05,1.952.05A38.89,38.89,0,0,0,29.563.789a3.655,3.655,0,0,1,4.535,0A38.822,38.822,0,0,0,57.565,8.98c.675,0,1.361-.018,2.038-.056h.043A3.773,3.773,0,0,1,63.5,12.462c.69,11.774.521,50.923-30.624,60.339a3.6,3.6,0,0,1-1.05.156M3.863,12.048a.763.763,0,0,0-.763.731c-.612,14.363.947,48.671,28.583,57.029a.765.765,0,0,0,.221.033.785.785,0,0,0,.222-.033c28.744-8.737,28.9-45.862,28.266-57.033a.765.765,0,0,0-.763-.721l-.036,0c-.638.03-1.287.045-1.923.045A41.594,41.594,0,0,1,32.3,3.354a.759.759,0,0,0-.938,0A42.261,42.261,0,0,1,5.966,12.1c-.683,0-1.378-.018-2.064-.051l-.038,0" transform="translate(0 0)" fill="#4ca1bf"/>
    <path id="Path_541" data-name="Path 541" d="M22.3,34.363a1.55,1.55,0,0,1-1.1-.458l-6.248-6.248a1.563,1.563,0,0,1,2.212-2.21l4.6,4.6a.765.765,0,0,0,1.081,0L37.486,15.4a1.563,1.563,0,1,1,2.21,2.21L23.4,33.905a1.554,1.554,0,0,1-1.106.458" transform="translate(9.535 9.834)" fill="#4ca1bf"/>
    <path id="Path_542" data-name="Path 542" d="M26.285,46.945A17.857,17.857,0,1,1,35.2,13.612a1.563,1.563,0,0,1,.575,2.134,1.572,1.572,0,0,1-1.358.783,1.539,1.539,0,0,1-.776-.209A14.733,14.733,0,1,0,40.863,31.2a1.584,1.584,0,0,1,1.569-1.34,1.54,1.54,0,0,1,.212.015,1.561,1.561,0,0,1,1.317,1.768A17.933,17.933,0,0,1,26.285,46.945" transform="translate(5.547 7.391)" fill="#4ca1bf"/>
  </g>
</svg>
