<svg xmlns="http://www.w3.org/2000/svg" width="21.428" height="17.413" viewBox="0 0 21.428 17.413">
  <path id="twt" d="M119.617,7.282a8.768,8.768,0,0,1-2.525.693,4.415,4.415,0,0,0,1.933-2.432,8.821,8.821,0,0,1-2.792,1.066,4.4,4.4,0,0,0-7.491,4.01A12.483,12.483,0,0,1,99.68,6.026a4.4,4.4,0,0,0,1.361,5.869,4.369,4.369,0,0,1-1.992-.55V11.4a4.4,4.4,0,0,0,3.526,4.311,4.418,4.418,0,0,1-1.159.153,4.468,4.468,0,0,1-.827-.078,4.4,4.4,0,0,0,4.107,3.053,8.884,8.884,0,0,1-6.508,1.819,12.5,12.5,0,0,0,19.248-10.533c0-.189-.005-.38-.013-.568a8.921,8.921,0,0,0,2.193-2.277" transform="translate(-98.189 -5.222)" fill="#fff"/>
</svg>
