<svg id="yti" xmlns="http://www.w3.org/2000/svg" xmlns:xlink="http://www.w3.org/1999/xlink" width="23.958" height="16.871" viewBox="0 0 23.958 16.871">
  <defs>
    <clipPath id="clip-path">
      <rect id="Rectangle_146" data-name="Rectangle 146" width="23.958" height="16.871" fill="#fff"/>
    </clipPath>
  </defs>
  <g id="Group_301" data-name="Group 301" transform="translate(0 0)" clip-path="url(#clip-path)">
    <path id="Path_334" data-name="Path 334" d="M23.958,7.923V8.95a.681.681,0,0,0-.024.11c-.026.677-.042,1.356-.08,2.033a17.189,17.189,0,0,1-.363,2.951A2.9,2.9,0,0,1,21.153,16.4a13.126,13.126,0,0,1-2.017.251q-2.387.132-4.777.2c-1.047.03-2.1.026-3.145.013q-2.11-.025-4.219-.09a32.338,32.338,0,0,1-3.94-.307A3.013,3.013,0,0,1,.731,14.85a4.509,4.509,0,0,1-.413-1.474A31.316,31.316,0,0,1,0,8.759C-.006,7.729.041,6.7.094,5.667A15.783,15.783,0,0,1,.45,2.815,2.922,2.922,0,0,1,2.783.47a9.755,9.755,0,0,1,1.6-.217C6.122.16,7.857.08,9.593.025,10.646-.01,11.7,0,12.755.011c1.4.017,2.8.031,4.2.094,1.239.056,2.477.15,3.711.275A3.035,3.035,0,0,1,23.531,3a26.577,26.577,0,0,1,.391,4.113c.011.268.025.537.037.805M9.521,12.01,15.8,8.436,9.521,4.863Z" transform="translate(0 0)" fill="#fff"/>
  </g>
</svg>
